<svg xmlns="http://www.w3.org/2000/svg" xmlns:xlink="http://www.w3.org/1999/xlink" width="500" zoomAndPan="magnify" viewBox="0 0 375 374.999991" height="500" preserveAspectRatio="xMidYMid meet" version="1.0"><defs><filter x="0%" y="0%" width="100%" height="100%" id="aa5c10e8cf"><feColorMatrix values="0 0 0 0 1 0 0 0 0 1 0 0 0 0 1 0 0 0 1 0" color-interpolation-filters="sRGB"/></filter><g/><clipPath id="0181f7a2f7"><path d="M 0.449219 0 L 116.773438 0 L 116.773438 116.324219 L 0.449219 116.324219 Z M 0.449219 0 " clip-rule="nonzero"/></clipPath><clipPath id="eab4859d7d"><path d="M 58.613281 0 C 26.488281 0 0.449219 26.039062 0.449219 58.164062 C 0.449219 90.285156 26.488281 116.324219 58.613281 116.324219 C 90.734375 116.324219 116.773438 90.285156 116.773438 58.164062 C 116.773438 26.039062 90.734375 0 58.613281 0 Z M 58.613281 0 " clip-rule="nonzero"/></clipPath><clipPath id="21d386dbe3"><path d="M 0.449219 0 L 116.773438 0 L 116.773438 116.324219 L 0.449219 116.324219 Z M 0.449219 0 " clip-rule="nonzero"/></clipPath><clipPath id="6d6a7be918"><path d="M 58.613281 0 C 26.488281 0 0.449219 26.039062 0.449219 58.164062 C 0.449219 90.285156 26.488281 116.324219 58.613281 116.324219 C 90.734375 116.324219 116.773438 90.285156 116.773438 58.164062 C 116.773438 26.039062 90.734375 0 58.613281 0 Z M 58.613281 0 " clip-rule="nonzero"/></clipPath><clipPath id="ea68b32554"><rect x="0" width="117" y="0" height="117"/></clipPath><clipPath id="9a8ffb6a79"><path d="M 0.449219 104.496094 L 116.773438 104.496094 L 116.773438 220.824219 L 0.449219 220.824219 Z M 0.449219 104.496094 " clip-rule="nonzero"/></clipPath><clipPath id="33e6dca220"><path d="M 58.613281 104.496094 C 26.488281 104.496094 0.449219 130.539062 0.449219 162.660156 C 0.449219 194.78125 26.488281 220.824219 58.613281 220.824219 C 90.734375 220.824219 116.773438 194.78125 116.773438 162.660156 C 116.773438 130.539062 90.734375 104.496094 58.613281 104.496094 Z M 58.613281 104.496094 " clip-rule="nonzero"/></clipPath><clipPath id="55846a748d"><path d="M 0.449219 0.496094 L 116.773438 0.496094 L 116.773438 116.824219 L 0.449219 116.824219 Z M 0.449219 0.496094 " clip-rule="nonzero"/></clipPath><clipPath id="ed59bd8abf"><path d="M 58.613281 0.496094 C 26.488281 0.496094 0.449219 26.539062 0.449219 58.660156 C 0.449219 90.78125 26.488281 116.824219 58.613281 116.824219 C 90.734375 116.824219 116.773438 90.78125 116.773438 58.660156 C 116.773438 26.539062 90.734375 0.496094 58.613281 0.496094 Z M 58.613281 0.496094 " clip-rule="nonzero"/></clipPath><clipPath id="5f562383cc"><rect x="0" width="117" y="0" height="117"/></clipPath><clipPath id="e86b5c1737"><path d="M 104.945312 104.496094 L 221.273438 104.496094 L 221.273438 220.824219 L 104.945312 220.824219 Z M 104.945312 104.496094 " clip-rule="nonzero"/></clipPath><clipPath id="939cf0f2e0"><path d="M 163.109375 104.496094 C 130.984375 104.496094 104.945312 130.539062 104.945312 162.660156 C 104.945312 194.78125 130.984375 220.824219 163.109375 220.824219 C 195.230469 220.824219 221.273438 194.78125 221.273438 162.660156 C 221.273438 130.539062 195.230469 104.496094 163.109375 104.496094 Z M 163.109375 104.496094 " clip-rule="nonzero"/></clipPath><clipPath id="7a2133e267"><path d="M 0.945312 0.496094 L 117.273438 0.496094 L 117.273438 116.824219 L 0.945312 116.824219 Z M 0.945312 0.496094 " clip-rule="nonzero"/></clipPath><clipPath id="d3059692c5"><path d="M 59.109375 0.496094 C 26.984375 0.496094 0.945312 26.539062 0.945312 58.660156 C 0.945312 90.78125 26.984375 116.824219 59.109375 116.824219 C 91.230469 116.824219 117.273438 90.78125 117.273438 58.660156 C 117.273438 26.539062 91.230469 0.496094 59.109375 0.496094 Z M 59.109375 0.496094 " clip-rule="nonzero"/></clipPath><clipPath id="24cdd6c566"><rect x="0" width="118" y="0" height="117"/></clipPath><clipPath id="ee74c77aee"><path d="M 104.945312 0 L 221.273438 0 L 221.273438 116.324219 L 104.945312 116.324219 Z M 104.945312 0 " clip-rule="nonzero"/></clipPath><clipPath id="6dc8aaddec"><path d="M 163.109375 0 C 130.984375 0 104.945312 26.039062 104.945312 58.164062 C 104.945312 90.285156 130.984375 116.324219 163.109375 116.324219 C 195.230469 116.324219 221.273438 90.285156 221.273438 58.164062 C 221.273438 26.039062 195.230469 0 163.109375 0 Z M 163.109375 0 " clip-rule="nonzero"/></clipPath><clipPath id="2ad1366752"><path d="M 0.945312 0 L 117.273438 0 L 117.273438 116.324219 L 0.945312 116.324219 Z M 0.945312 0 " clip-rule="nonzero"/></clipPath><clipPath id="9d7b66bce8"><path d="M 59.109375 0 C 26.984375 0 0.945312 26.039062 0.945312 58.164062 C 0.945312 90.285156 26.984375 116.324219 59.109375 116.324219 C 91.230469 116.324219 117.273438 90.285156 117.273438 58.164062 C 117.273438 26.039062 91.230469 0 59.109375 0 Z M 59.109375 0 " clip-rule="nonzero"/></clipPath><clipPath id="7983a6b205"><rect x="0" width="118" y="0" height="117"/></clipPath><clipPath id="b7a17099e3"><path d="M 0.449219 58.15625 L 221.269531 58.15625 L 221.269531 162.65625 L 0.449219 162.65625 Z M 0.449219 58.15625 " clip-rule="nonzero"/></clipPath><clipPath id="3eb9450a86"><path d="M 0.449219 0.15625 L 221.269531 0.15625 L 221.269531 104.65625 L 0.449219 104.65625 Z M 0.449219 0.15625 " clip-rule="nonzero"/></clipPath><clipPath id="891798e64c"><rect x="0" width="222" y="0" height="105"/></clipPath><clipPath id="ff3fbc7c7b"><path d="M 58.613281 0 L 163.109375 0 L 163.109375 220.824219 L 58.613281 220.824219 Z M 58.613281 0 " clip-rule="nonzero"/></clipPath><clipPath id="2cc3a3d426"><path d="M 0.613281 0 L 105.109375 0 L 105.109375 220.824219 L 0.613281 220.824219 Z M 0.613281 0 " clip-rule="nonzero"/></clipPath><clipPath id="9bf88f4847"><rect x="0" width="106" y="0" height="221"/></clipPath><clipPath id="2909d59b57"><path d="M 49.214844 57.957031 L 137.761719 57.957031 L 137.761719 81.886719 L 49.214844 81.886719 Z M 49.214844 57.957031 " clip-rule="nonzero"/></clipPath><mask id="3e0a9f3f84"><g filter="url(#aa5c10e8cf)"><rect x="-168.5" width="540" fill="#000000" y="-82.499998" height="539.999987" fill-opacity="0.7"/></g></mask><clipPath id="be06bebd06"><path d="M 0.214844 0.796875 L 88.679688 0.796875 L 88.679688 24.238281 L 0.214844 24.238281 Z M 0.214844 0.796875 " clip-rule="nonzero"/></clipPath><clipPath id="c5ddd5f795"><rect x="0" width="89" y="0" height="25"/></clipPath><mask id="871eed45b8"><g filter="url(#aa5c10e8cf)"><rect x="-168.5" width="540" fill="#000000" y="-82.499998" height="539.999987" fill-opacity="0.85"/></g></mask><clipPath id="d6c37d48a8"><path d="M 0.175781 0.386719 L 88.71875 0.386719 L 88.71875 23.679688 L 0.175781 23.679688 Z M 0.175781 0.386719 " clip-rule="nonzero"/></clipPath><clipPath id="510f7c6404"><path d="M 0.175781 0.386719 L 88.503906 0.386719 L 88.503906 23.679688 L 0.175781 23.679688 Z M 0.175781 0.386719 " clip-rule="nonzero"/></clipPath><clipPath id="6815d13a2f"><rect x="0" width="89" y="0" height="24"/></clipPath><clipPath id="28b2678744"><rect x="0" width="89" y="0" height="24"/></clipPath><clipPath id="f1b65f2ca2"><rect x="0" width="222" y="0" height="222"/></clipPath><clipPath id="7a4f806d7f"><rect x="0" width="223" y="0" height="102"/></clipPath></defs><g transform="matrix(1, 0, 0, 1, 86, 0)"><g clip-path="url(#f1b65f2ca2)"><g clip-path="url(#0181f7a2f7)"><g clip-path="url(#eab4859d7d)"><g><g clip-path="url(#ea68b32554)"><g clip-path="url(#21d386dbe3)"><g clip-path="url(#6d6a7be918)"><path fill="#465fff" d="M 0.449219 0 L 116.773438 0 L 116.773438 116.324219 L 0.449219 116.324219 Z M 0.449219 0 " fill-opacity="1" fill-rule="nonzero"/></g></g></g></g></g></g><g clip-path="url(#9a8ffb6a79)"><g clip-path="url(#33e6dca220)"><g transform="matrix(1, 0, 0, 1, 0, 104)"><g clip-path="url(#5f562383cc)"><g clip-path="url(#55846a748d)"><g clip-path="url(#ed59bd8abf)"><path fill="#465fff" d="M 0.449219 0.496094 L 116.773438 0.496094 L 116.773438 116.824219 L 0.449219 116.824219 Z M 0.449219 0.496094 " fill-opacity="1" fill-rule="nonzero"/></g></g></g></g></g></g><g clip-path="url(#e86b5c1737)"><g clip-path="url(#939cf0f2e0)"><g transform="matrix(1, 0, 0, 1, 104, 104)"><g clip-path="url(#24cdd6c566)"><g clip-path="url(#7a2133e267)"><g clip-path="url(#d3059692c5)"><path fill="#465fff" d="M 0.945312 0.496094 L 117.273438 0.496094 L 117.273438 116.824219 L 0.945312 116.824219 Z M 0.945312 0.496094 " fill-opacity="1" fill-rule="nonzero"/></g></g></g></g></g></g><g clip-path="url(#ee74c77aee)"><g clip-path="url(#6dc8aaddec)"><g transform="matrix(1, 0, 0, 1, 104, 0)"><g clip-path="url(#7983a6b205)"><g clip-path="url(#2ad1366752)"><g clip-path="url(#9d7b66bce8)"><path fill="#465fff" d="M 0.945312 0 L 117.273438 0 L 117.273438 116.324219 L 0.945312 116.324219 Z M 0.945312 0 " fill-opacity="1" fill-rule="nonzero"/></g></g></g></g></g></g><g clip-path="url(#b7a17099e3)"><g transform="matrix(1, 0, 0, 1, 0, 58)"><g clip-path="url(#891798e64c)"><g clip-path="url(#3eb9450a86)"><path fill="#465fff" d="M 0.449219 104.65625 L 0.449219 0.15625 L 221.277344 0.15625 L 221.277344 104.65625 Z M 0.449219 104.65625 " fill-opacity="1" fill-rule="nonzero"/></g></g></g></g><g clip-path="url(#ff3fbc7c7b)"><g transform="matrix(1, 0, 0, 1, 58, 0)"><g clip-path="url(#9bf88f4847)"><g clip-path="url(#2cc3a3d426)"><path fill="#465fff" d="M 0.613281 0 L 105.109375 0 L 105.109375 220.832031 L 0.613281 220.832031 Z M 0.613281 0 " fill-opacity="1" fill-rule="nonzero"/></g></g></g></g><g clip-path="url(#2909d59b57)"><path fill="#ffffff" d="M 130.296875 57.957031 L 58.867188 57.957031 C 54.875 57.957031 51.636719 61.191406 51.636719 65.183594 L 51.636719 77.40625 C 51.636719 80.007812 49.238281 80.890625 49.238281 80.890625 C 52.082031 82.023438 54.289062 79.53125 54.289062 79.53125 C 55.535156 80.550781 57.128906 81.164062 58.867188 81.164062 L 130.296875 81.164062 C 134.289062 81.164062 137.523438 77.929688 137.523438 73.9375 L 137.523438 65.183594 C 137.523438 61.191406 134.285156 57.957031 130.296875 57.957031 Z M 130.296875 57.957031 " fill-opacity="1" fill-rule="nonzero"/></g><g mask="url(#3e0a9f3f84)"><g transform="matrix(1, 0, 0, 1, 49, 138)"><g clip-path="url(#c5ddd5f795)"><g clip-path="url(#be06bebd06)"><path fill="#ffffff" d="M 81.296875 0.796875 L 9.867188 0.796875 C 5.875 0.796875 2.636719 4.03125 2.636719 8.023438 L 2.636719 20.246094 C 2.636719 22.847656 0.238281 23.734375 0.238281 23.734375 C 3.082031 24.863281 5.289062 22.371094 5.289062 22.371094 C 6.535156 23.394531 8.128906 24.003906 9.867188 24.003906 L 81.296875 24.003906 C 85.289062 24.003906 88.523438 20.769531 88.523438 16.777344 L 88.523438 8.023438 C 88.523438 4.03125 85.285156 0.796875 81.296875 0.796875 Z M 81.296875 0.796875 " fill-opacity="1" fill-rule="nonzero"/></g></g></g></g><g mask="url(#871eed45b8)"><g transform="matrix(1, 0, 0, 1, 84, 98)"><g clip-path="url(#28b2678744)"><g clip-path="url(#d6c37d48a8)"><g><g clip-path="url(#6815d13a2f)"><g clip-path="url(#510f7c6404)"><path fill="#ffffff" d="M 7.425781 0.386719 L 78.855469 0.386719 C 82.847656 0.386719 86.082031 3.621094 86.082031 7.613281 L 86.082031 19.835938 C 86.082031 22.4375 88.484375 23.324219 88.484375 23.324219 C 85.636719 24.453125 83.429688 21.960938 83.429688 21.960938 C 82.183594 22.980469 80.589844 23.59375 78.855469 23.59375 L 7.425781 23.59375 C 3.433594 23.59375 0.199219 20.359375 0.199219 16.367188 L 0.199219 7.613281 C 0.199219 3.621094 3.433594 0.386719 7.425781 0.386719 Z M 7.425781 0.386719 " fill-opacity="1" fill-rule="nonzero"/></g></g></g></g></g></g></g></g></g><g transform="matrix(1, 0, 0, 1, 86, 273)"><g clip-path="url(#7a4f806d7f)"><g fill="#ffffff" fill-opacity="1"><g transform="translate(0.467765, 83.681421)"><g><path d="M 23.078125 -76.765625 L 23.078125 0 L 5.578125 0 L 5.578125 -76.765625 Z M 23.078125 -76.765625 "/></g></g></g><g fill="#ffffff" fill-opacity="1"><g transform="translate(24.655637, 83.681421)"><g><path d="M 0.75 -61.40625 L 0.75 -76.765625 L 54.71875 -76.765625 L 54.71875 -61.40625 L 36.46875 -61.40625 L 36.46875 0 L 18.984375 0 L 18.984375 -61.40625 Z M 0.75 -61.40625 "/></g></g></g><g fill="#ffffff" fill-opacity="1"><g transform="translate(77.125743, 83.681421)"><g><path d="M 2.140625 -38.421875 C 2.140625 -49.523438 5.921875 -58.921875 13.484375 -66.609375 C 21.054688 -74.304688 30.175781 -78.15625 40.84375 -78.15625 C 51.570312 -78.15625 60.691406 -74.320312 68.203125 -66.65625 C 75.710938 -59 79.46875 -49.585938 79.46875 -38.421875 C 79.46875 -27.203125 75.773438 -17.757812 68.390625 -10.09375 C 61.003906 -2.4375 51.820312 1.390625 40.84375 1.390625 C 29.613281 1.390625 20.351562 -2.40625 13.0625 -10 C 5.78125 -17.601562 2.140625 -27.078125 2.140625 -38.421875 Z M 21.03125 -38.421875 C 21.03125 -34.390625 21.648438 -30.710938 22.890625 -27.390625 C 24.128906 -24.078125 26.300781 -21.269531 29.40625 -18.96875 C 32.507812 -16.675781 36.320312 -15.53125 40.84375 -15.53125 C 47.363281 -15.53125 52.28125 -17.765625 55.59375 -22.234375 C 58.914062 -26.703125 60.578125 -32.097656 60.578125 -38.421875 C 60.578125 -44.691406 58.882812 -50.070312 55.5 -54.5625 C 52.125 -59.0625 47.238281 -61.3125 40.84375 -61.3125 C 34.519531 -61.3125 29.632812 -59.0625 26.1875 -54.5625 C 22.75 -50.070312 21.03125 -44.691406 21.03125 -38.421875 Z M 21.03125 -38.421875 "/></g></g></g><g fill="#ffffff" fill-opacity="1"><g transform="translate(158.715614, 83.681421)"><g><path d="M 33.875 -78.15625 C 38.03125 -78.15625 42.09375 -77.550781 46.0625 -76.34375 C 50.03125 -75.132812 52.972656 -73.941406 54.890625 -72.765625 L 57.6875 -70.90625 L 50.625 -56.9375 C 50.0625 -57.3125 49.28125 -57.789062 48.28125 -58.375 C 47.289062 -58.96875 45.429688 -59.757812 42.703125 -60.75 C 39.972656 -61.75 37.429688 -62.25 35.078125 -62.25 C 32.160156 -62.25 29.910156 -61.628906 28.328125 -60.390625 C 26.742188 -59.148438 25.953125 -57.472656 25.953125 -55.359375 C 25.953125 -54.304688 26.320312 -53.328125 27.0625 -52.421875 C 27.8125 -51.523438 29.085938 -50.566406 30.890625 -49.546875 C 32.691406 -48.523438 34.273438 -47.703125 35.640625 -47.078125 C 37.003906 -46.460938 39.113281 -45.535156 41.96875 -44.296875 C 46.925781 -42.179688 51.15625 -39.304688 54.65625 -35.671875 C 58.164062 -32.046875 59.921875 -27.941406 59.921875 -23.359375 C 59.921875 -18.953125 59.128906 -15.101562 57.546875 -11.8125 C 55.960938 -8.53125 53.789062 -5.957031 51.03125 -4.09375 C 48.269531 -2.226562 45.210938 -0.847656 41.859375 0.046875 C 38.515625 0.941406 34.890625 1.390625 30.984375 1.390625 C 27.628906 1.390625 24.335938 1.046875 21.109375 0.359375 C 17.890625 -0.316406 15.191406 -1.164062 13.015625 -2.1875 C 10.847656 -3.207031 8.894531 -4.210938 7.15625 -5.203125 C 5.425781 -6.203125 4.15625 -7.039062 3.34375 -7.71875 L 2.140625 -8.75 L 10.890625 -23.453125 C 11.628906 -22.828125 12.648438 -22.035156 13.953125 -21.078125 C 15.253906 -20.117188 17.5625 -18.832031 20.875 -17.21875 C 24.195312 -15.601562 27.132812 -14.796875 29.6875 -14.796875 C 37.0625 -14.796875 40.75 -17.304688 40.75 -22.328125 C 40.75 -23.378906 40.484375 -24.351562 39.953125 -25.25 C 39.429688 -26.15625 38.503906 -27.054688 37.171875 -27.953125 C 35.835938 -28.859375 34.65625 -29.570312 33.625 -30.09375 C 32.601562 -30.625 30.929688 -31.429688 28.609375 -32.515625 C 26.285156 -33.597656 24.566406 -34.421875 23.453125 -34.984375 C 18.796875 -37.273438 15.195312 -40.140625 12.65625 -43.578125 C 10.113281 -47.023438 8.84375 -50.738281 8.84375 -54.71875 C 8.84375 -61.601562 11.382812 -67.226562 16.46875 -71.59375 C 21.550781 -75.96875 27.351562 -78.15625 33.875 -78.15625 Z M 33.875 -78.15625 "/></g></g></g></g></g></svg>