<svg xmlns="http://www.w3.org/2000/svg" xmlns:xlink="http://www.w3.org/1999/xlink" width="500" zoomAndPan="magnify" viewBox="0 0 375 374.999991" height="500" preserveAspectRatio="xMidYMid meet" version="1.0"><defs><filter x="0%" y="0%" width="100%" height="100%" id="c83a86f654"><feColorMatrix values="0 0 0 0 1 0 0 0 0 1 0 0 0 0 1 0 0 0 1 0" color-interpolation-filters="sRGB"/></filter><clipPath id="ee91577c27"><path d="M 0 0 L 197.542969 0 L 197.542969 197.542969 L 0 197.542969 Z M 0 0 " clip-rule="nonzero"/></clipPath><clipPath id="fa365821d9"><path d="M 98.773438 0 C 44.222656 0 0 44.222656 0 98.773438 C 0 153.320312 44.222656 197.542969 98.773438 197.542969 C 153.320312 197.542969 197.542969 153.320312 197.542969 98.773438 C 197.542969 44.222656 153.320312 0 98.773438 0 Z M 98.773438 0 " clip-rule="nonzero"/></clipPath><clipPath id="fb9793474d"><path d="M 0 0 L 197.542969 0 L 197.542969 197.542969 L 0 197.542969 Z M 0 0 " clip-rule="nonzero"/></clipPath><clipPath id="38750137fa"><path d="M 98.773438 0 C 44.222656 0 0 44.222656 0 98.773438 C 0 153.320312 44.222656 197.542969 98.773438 197.542969 C 153.320312 197.542969 197.542969 153.320312 197.542969 98.773438 C 197.542969 44.222656 153.320312 0 98.773438 0 Z M 98.773438 0 " clip-rule="nonzero"/></clipPath><clipPath id="7bb6bdbc4c"><rect x="0" width="198" y="0" height="198"/></clipPath><clipPath id="099f7e7bc1"><path d="M 0 177.457031 L 197.542969 177.457031 L 197.542969 375 L 0 375 Z M 0 177.457031 " clip-rule="nonzero"/></clipPath><clipPath id="c6ded57a0a"><path d="M 98.773438 177.457031 C 44.222656 177.457031 0 221.679688 0 276.226562 C 0 330.777344 44.222656 375 98.773438 375 C 153.320312 375 197.542969 330.777344 197.542969 276.226562 C 197.542969 221.679688 153.320312 177.457031 98.773438 177.457031 Z M 98.773438 177.457031 " clip-rule="nonzero"/></clipPath><clipPath id="ac5d2f62f3"><path d="M 0 0.457031 L 197.542969 0.457031 L 197.542969 198 L 0 198 Z M 0 0.457031 " clip-rule="nonzero"/></clipPath><clipPath id="15b4bc6ee3"><path d="M 98.773438 0.457031 C 44.222656 0.457031 0 44.679688 0 99.226562 C 0 153.777344 44.222656 198 98.773438 198 C 153.320312 198 197.542969 153.777344 197.542969 99.226562 C 197.542969 44.679688 153.320312 0.457031 98.773438 0.457031 Z M 98.773438 0.457031 " clip-rule="nonzero"/></clipPath><clipPath id="4de1a758a9"><rect x="0" width="198" y="0" height="198"/></clipPath><clipPath id="758027db67"><path d="M 177.457031 177.457031 L 375 177.457031 L 375 375 L 177.457031 375 Z M 177.457031 177.457031 " clip-rule="nonzero"/></clipPath><clipPath id="7327ffb786"><path d="M 276.226562 177.457031 C 221.679688 177.457031 177.457031 221.679688 177.457031 276.226562 C 177.457031 330.777344 221.679688 375 276.226562 375 C 330.777344 375 375 330.777344 375 276.226562 C 375 221.679688 330.777344 177.457031 276.226562 177.457031 Z M 276.226562 177.457031 " clip-rule="nonzero"/></clipPath><clipPath id="a758f23255"><path d="M 0.457031 0.457031 L 198 0.457031 L 198 198 L 0.457031 198 Z M 0.457031 0.457031 " clip-rule="nonzero"/></clipPath><clipPath id="137329e644"><path d="M 99.226562 0.457031 C 44.679688 0.457031 0.457031 44.679688 0.457031 99.226562 C 0.457031 153.777344 44.679688 198 99.226562 198 C 153.777344 198 198 153.777344 198 99.226562 C 198 44.679688 153.777344 0.457031 99.226562 0.457031 Z M 99.226562 0.457031 " clip-rule="nonzero"/></clipPath><clipPath id="d13d946d58"><rect x="0" width="198" y="0" height="198"/></clipPath><clipPath id="8e053a907d"><path d="M 177.457031 0 L 375 0 L 375 197.542969 L 177.457031 197.542969 Z M 177.457031 0 " clip-rule="nonzero"/></clipPath><clipPath id="f7927aa6e1"><path d="M 276.226562 0 C 221.679688 0 177.457031 44.222656 177.457031 98.773438 C 177.457031 153.320312 221.679688 197.542969 276.226562 197.542969 C 330.777344 197.542969 375 153.320312 375 98.773438 C 375 44.222656 330.777344 0 276.226562 0 Z M 276.226562 0 " clip-rule="nonzero"/></clipPath><clipPath id="d539b8b32c"><path d="M 0.457031 0 L 198 0 L 198 197.542969 L 0.457031 197.542969 Z M 0.457031 0 " clip-rule="nonzero"/></clipPath><clipPath id="6f23af59ae"><path d="M 99.226562 0 C 44.679688 0 0.457031 44.222656 0.457031 98.773438 C 0.457031 153.320312 44.679688 197.542969 99.226562 197.542969 C 153.777344 197.542969 198 153.320312 198 98.773438 C 198 44.222656 153.777344 0 99.226562 0 Z M 99.226562 0 " clip-rule="nonzero"/></clipPath><clipPath id="57a8b1c344"><rect x="0" width="198" y="0" height="198"/></clipPath><clipPath id="2705507a74"><path d="M 0 98.761719 L 374.996094 98.761719 L 374.996094 276.21875 L 0 276.21875 Z M 0 98.761719 " clip-rule="nonzero"/></clipPath><clipPath id="49e335342d"><path d="M 0 0.761719 L 374.996094 0.761719 L 374.996094 178.21875 L 0 178.21875 Z M 0 0.761719 " clip-rule="nonzero"/></clipPath><clipPath id="abc740edb2"><rect x="0" width="375" y="0" height="179"/></clipPath><clipPath id="948bd96341"><path d="M 98.773438 0 L 276.226562 0 L 276.226562 375 L 98.773438 375 Z M 98.773438 0 " clip-rule="nonzero"/></clipPath><clipPath id="70d6501444"><path d="M 0.773438 0 L 178.226562 0 L 178.226562 375 L 0.773438 375 Z M 0.773438 0 " clip-rule="nonzero"/></clipPath><clipPath id="8a0ed3ebca"><rect x="0" width="179" y="0" height="375"/></clipPath><clipPath id="b060f0b844"><rect x="0" width="375" y="0" height="375"/></clipPath><clipPath id="b798a57a2e"><path d="M 82.816406 98.421875 L 232.816406 98.421875 L 232.816406 138 L 82.816406 138 Z M 82.816406 98.421875 " clip-rule="nonzero"/></clipPath><mask id="8b0fc59d0b"><g filter="url(#c83a86f654)"><rect x="-37.5" width="450" fill="#000000" y="-37.499999" height="449.999989" fill-opacity="0.7"/></g></mask><clipPath id="8b9ebb689d"><path d="M 0.816406 0.703125 L 150.816406 0.703125 L 150.816406 40.28125 L 0.816406 40.28125 Z M 0.816406 0.703125 " clip-rule="nonzero"/></clipPath><clipPath id="e8c529185b"><rect x="0" width="152" y="0" height="41"/></clipPath><mask id="72da1c64a0"><g filter="url(#c83a86f654)"><rect x="-37.5" width="450" fill="#000000" y="-37.499999" height="449.999989" fill-opacity="0.85"/></g></mask><clipPath id="94998d6b31"><path d="M 0.183594 0.078125 L 150.183594 0.078125 L 150.183594 39.640625 L 0.183594 39.640625 Z M 0.183594 0.078125 " clip-rule="nonzero"/></clipPath><clipPath id="c63637ab7f"><path d="M 0.183594 0.078125 L 150.183594 0.078125 L 150.183594 39.640625 L 0.183594 39.640625 Z M 0.183594 0.078125 " clip-rule="nonzero"/></clipPath><clipPath id="531a130634"><rect x="0" width="151" y="0" height="40"/></clipPath><clipPath id="f522afccb7"><rect x="0" width="151" y="0" height="40"/></clipPath></defs><g transform="matrix(1, 0, 0, 1, 0, 0)"><g clip-path="url(#b060f0b844)"><g clip-path="url(#ee91577c27)"><g clip-path="url(#fa365821d9)"><g transform="matrix(1, 0, 0, 1, 0, 0)"><g clip-path="url(#7bb6bdbc4c)"><g clip-path="url(#fb9793474d)"><g clip-path="url(#38750137fa)"><path fill="#465fff" d="M 0 0 L 197.542969 0 L 197.542969 197.542969 L 0 197.542969 Z M 0 0 " fill-opacity="1" fill-rule="nonzero"/></g></g></g></g></g></g><g clip-path="url(#099f7e7bc1)"><g clip-path="url(#c6ded57a0a)"><g transform="matrix(1, 0, 0, 1, 0, 177)"><g clip-path="url(#4de1a758a9)"><g clip-path="url(#ac5d2f62f3)"><g clip-path="url(#15b4bc6ee3)"><path fill="#465fff" d="M 0 0.457031 L 197.542969 0.457031 L 197.542969 198 L 0 198 Z M 0 0.457031 " fill-opacity="1" fill-rule="nonzero"/></g></g></g></g></g></g><g clip-path="url(#758027db67)"><g clip-path="url(#7327ffb786)"><g transform="matrix(1, 0, 0, 1, 177, 177)"><g clip-path="url(#d13d946d58)"><g clip-path="url(#a758f23255)"><g clip-path="url(#137329e644)"><path fill="#465fff" d="M 0.457031 0.457031 L 198 0.457031 L 198 198 L 0.457031 198 Z M 0.457031 0.457031 " fill-opacity="1" fill-rule="nonzero"/></g></g></g></g></g></g><g clip-path="url(#8e053a907d)"><g clip-path="url(#f7927aa6e1)"><g transform="matrix(1, 0, 0, 1, 177, 0)"><g clip-path="url(#57a8b1c344)"><g clip-path="url(#d539b8b32c)"><g clip-path="url(#6f23af59ae)"><path fill="#465fff" d="M 0.457031 0 L 198 0 L 198 197.542969 L 0.457031 197.542969 Z M 0.457031 0 " fill-opacity="1" fill-rule="nonzero"/></g></g></g></g></g></g><g clip-path="url(#2705507a74)"><g transform="matrix(1, 0, 0, 1, 0, 98)"><g clip-path="url(#abc740edb2)"><g clip-path="url(#49e335342d)"><path fill="#465fff" d="M -0.00390625 178.21875 L -0.00390625 0.761719 L 375.011719 0.761719 L 375.011719 178.21875 Z M -0.00390625 178.21875 " fill-opacity="1" fill-rule="nonzero"/></g></g></g></g><g clip-path="url(#948bd96341)"><g transform="matrix(1, 0, 0, 1, 98, 0)"><g clip-path="url(#8a0ed3ebca)"><g clip-path="url(#70d6501444)"><path fill="#465fff" d="M 0.773438 0 L 178.226562 0 L 178.226562 375.015625 L 0.773438 375.015625 Z M 0.773438 0 " fill-opacity="1" fill-rule="nonzero"/></g></g></g></g></g></g><g clip-path="url(#b798a57a2e)"><path fill="#ffffff" d="M 220.515625 98.421875 L 99.195312 98.421875 C 92.414062 98.421875 86.917969 103.917969 86.917969 110.695312 L 86.917969 131.457031 C 86.917969 135.871094 82.839844 137.375 82.839844 137.375 C 87.671875 139.296875 91.421875 135.066406 91.421875 135.066406 L 91.421875 135.0625 C 93.539062 136.796875 96.246094 137.839844 99.195312 137.839844 L 220.515625 137.839844 C 227.292969 137.839844 232.789062 132.34375 232.789062 125.5625 L 232.789062 110.695312 C 232.789062 103.917969 227.292969 98.421875 220.515625 98.421875 Z M 220.515625 98.421875 " fill-opacity="1" fill-rule="nonzero"/></g><g mask="url(#8b0fc59d0b)"><g transform="matrix(1, 0, 0, 1, 82, 235)"><g clip-path="url(#e8c529185b)"><g clip-path="url(#8b9ebb689d)"><path fill="#ffffff" d="M 138.515625 0.703125 L 17.195312 0.703125 C 10.414062 0.703125 4.917969 6.199219 4.917969 12.980469 L 4.917969 33.742188 C 4.917969 38.15625 0.839844 39.660156 0.839844 39.660156 C 5.671875 41.582031 9.421875 37.347656 9.421875 37.347656 C 11.539062 39.082031 14.246094 40.125 17.195312 40.125 L 138.515625 40.125 C 145.292969 40.125 150.789062 34.628906 150.789062 27.847656 L 150.789062 12.980469 C 150.789062 6.199219 145.292969 0.703125 138.515625 0.703125 Z M 138.515625 0.703125 " fill-opacity="1" fill-rule="nonzero"/></g></g></g></g><g mask="url(#72da1c64a0)"><g transform="matrix(1, 0, 0, 1, 142, 167)"><g clip-path="url(#f522afccb7)"><g clip-path="url(#94998d6b31)"><g><g clip-path="url(#531a130634)"><g clip-path="url(#c63637ab7f)"><path fill="#ffffff" d="M 12.484375 0.078125 L 133.804688 0.078125 C 140.585938 0.078125 146.082031 5.574219 146.082031 12.355469 L 146.082031 33.117188 C 146.082031 37.53125 150.160156 39.035156 150.160156 39.035156 C 145.328125 40.957031 141.578125 36.722656 141.578125 36.722656 C 139.460938 38.457031 136.753906 39.5 133.804688 39.5 L 12.484375 39.5 C 5.707031 39.5 0.210938 34.003906 0.210938 27.222656 L 0.210938 12.355469 C 0.210938 5.574219 5.707031 0.078125 12.484375 0.078125 Z M 12.484375 0.078125 " fill-opacity="1" fill-rule="nonzero"/></g></g></g></g></g></g></g></svg>